<svg width="22" height="24" viewBox="0 0 22 24" fill="none" xmlns="http://www.w3.org/2000/svg">
<path fill-rule="evenodd" clip-rule="evenodd" d="M11.043 8.79297C11.6628 8.79297 12.1699 9.29705 12.1699 9.91316C12.1699 10.3052 11.9727 10.6693 11.6628 10.8653L12.1699 12.8256H11.043H9.91602L10.4231 10.8653C10.1132 10.6693 9.91602 10.3052 9.91602 9.91316C9.91602 9.32506 10.4231 8.79297 11.043 8.79297Z" fill="#2E3542"/>
<path d="M3.49171 15.3746C3.57623 15.5146 3.66075 15.6546 3.77345 15.7946C3.88614 15.9347 3.97066 16.0747 4.11153 16.2147C4.22423 16.3547 4.3651 16.4947 4.47779 16.6348C4.61866 16.7748 4.75953 16.9148 4.9004 17.0828C5.04127 17.2229 5.18214 17.3629 5.35119 17.5309C5.52023 17.6709 5.6611 17.839 5.83014 17.979C5.99918 18.119 6.16823 18.259 6.33727 18.4271C6.50632 18.5671 6.67536 18.7071 6.87258 18.8471C7.06979 18.9872 7.23884 19.1272 7.43605 19.2672C7.63327 19.4072 7.83049 19.5473 7.99953 19.6593C8.19675 19.7993 8.39397 19.9113 8.59118 20.0513C8.76023 20.1634 8.95744 20.2754 9.15466 20.4154C9.32371 20.5274 9.52092 20.6394 9.74631 20.7515C9.94353 20.8635 10.1407 20.9755 10.338 21.0875C10.5634 21.1995 10.7606 21.3116 10.9578 21.4236L10.986 21.4516L11.0141 21.4236C11.2114 21.3116 11.4367 21.1995 11.634 21.0875C11.8312 20.9755 12.0566 20.8635 12.2256 20.7515C12.4228 20.6394 12.6201 20.5274 12.8173 20.4154C13.0145 20.3034 13.2117 20.1634 13.4089 20.0513C13.6061 19.9113 13.8034 19.7993 14.0006 19.6593C14.1978 19.5193 14.395 19.4072 14.5641 19.2672C14.7613 19.1272 14.9303 18.9872 15.1275 18.8471C15.2966 18.7071 15.4938 18.5671 15.6628 18.4271C15.8601 18.287 16.0291 18.119 16.17 17.979C16.339 17.839 16.5081 17.6709 16.6489 17.5309C16.818 17.3909 16.9588 17.2229 17.0997 17.0828C17.2406 16.9428 17.3814 16.8028 17.5223 16.6348C17.6632 16.4947 17.7759 16.3547 17.8886 16.2147C18.0013 16.0747 18.114 15.9347 18.2267 15.7946C18.3394 15.6546 18.4239 15.5146 18.5084 15.3746C18.5929 15.2345 18.6774 15.0945 18.7338 14.9825C18.7901 14.8985 18.8183 14.8145 18.8747 14.7305C18.9028 14.6464 18.9592 14.5624 18.9874 14.5064C19.0155 14.4224 19.0437 14.3664 19.0719 14.2824C19.1 14.2264 19.1 14.1424 19.1282 14.0863C19.1564 13.9463 19.1564 13.8063 19.1846 13.6663C19.1846 13.5263 19.1846 13.3862 19.1846 13.2182V13.1342V13.1062C19.1846 13.0222 19.1846 12.9662 19.1846 12.9382C19.1846 12.8821 19.1846 12.8261 19.1846 12.7701V12.7141H16.3672C15.3247 15.3186 13.5498 17.5309 10.986 19.6873C8.45031 17.5309 6.64718 15.3186 5.60475 12.7141H2.84371H2.67466H1.6604H1.49136H0.674317H0.505274V12.5461V5.01284V4.70478V4.59277V4.50875L0.561622 4.48075L0.646143 4.39673L0.871534 4.2007C1.20962 3.86464 1.57588 3.55659 1.94214 3.24854C2.3084 2.94049 2.70284 2.66044 3.09727 2.4084C3.49171 2.15636 3.91432 1.90432 4.30875 1.68028C4.73136 1.45624 5.15397 1.26021 5.57658 1.09218C5.99918 0.924154 6.44997 0.756126 6.90075 0.616103C7.35153 0.476079 7.83049 0.364061 8.28127 0.280047C8.73205 0.196033 9.21101 0.112019 9.66179 0.084014C10.1126 0.0280047 10.5915 0 11.0423 0C11.4931 0 11.9721 0.0280047 12.4228 0.0560093C12.9018 0.112019 13.3526 0.196033 13.8034 0.280047C14.2541 0.364061 14.7049 0.476079 15.1557 0.616103C15.6065 0.756126 16.0573 0.896149 16.4799 1.09218C16.9025 1.26021 17.3251 1.45624 17.7477 1.68028C18.1703 1.90432 18.5647 2.12835 18.9592 2.4084C19.3536 2.66044 19.748 2.94049 20.1143 3.24854C20.4806 3.55659 20.8468 3.86464 21.1849 4.2007L21.4103 4.42474L21.4948 4.50875L21.5512 4.56476V4.64877V4.76079V5.06884V8.56943V8.68145H21.3821H19.3818H19.2127V8.51342V5.54492V5.51692L19.1846 5.48891C18.9028 5.23687 18.6211 5.01284 18.3112 4.7888C18.0013 4.56476 17.7195 4.36873 17.4096 4.1727C17.0997 3.97666 16.7616 3.80863 16.4517 3.64061C16.1136 3.47258 15.8037 3.33256 15.4656 3.19253C15.0994 3.05251 14.7613 2.94049 14.395 2.82847C14.0287 2.71645 13.6625 2.63244 13.2962 2.54842C12.93 2.46441 12.5355 2.43641 12.1693 2.3804C11.803 2.35239 11.4086 2.32439 11.0423 2.32439C10.6761 2.32439 10.2816 2.35239 9.91536 2.3804C9.5491 2.4084 9.15466 2.46441 8.7884 2.54842C8.42214 2.63244 8.05588 2.71645 7.68962 2.82847C7.32336 2.94049 6.9571 3.05251 6.61901 3.19253C6.28092 3.33256 5.94284 3.47258 5.63292 3.64061C5.32301 3.80863 4.98492 3.97666 4.67501 4.1727C4.3651 4.36873 4.05519 4.56476 3.77345 4.7888C3.49171 5.01284 3.18179 5.23687 2.90006 5.48891L2.87188 5.51692V5.54492V10.3337H4.98492C4.70319 9.0175 4.56232 7.58926 4.59049 6.021C9.04197 4.59277 13.099 4.59277 17.5505 6.021C17.5787 7.58926 17.4378 9.0175 17.156 10.3337H19.2691H19.4381H21.4385H21.6075V10.5017V12.7141C21.6075 13.7783 21.6075 14.3104 21.523 14.7305C21.4385 15.1785 21.2694 15.4586 20.9595 16.0187L20.9314 16.0747C20.8468 16.2427 20.7341 16.4107 20.6214 16.5788C20.5087 16.7468 20.396 16.9148 20.2552 17.0828C20.1425 17.2509 20.0016 17.4189 19.8607 17.6149C19.7199 17.783 19.579 17.979 19.41 18.147C19.2691 18.3151 19.1 18.4831 18.931 18.6791C18.762 18.8471 18.5929 19.0152 18.3957 19.1832C18.2267 19.3512 18.0294 19.5193 17.8322 19.6873C17.635 19.8553 17.4378 20.0233 17.2406 20.1914C17.0434 20.3594 16.8461 20.4994 16.6207 20.6674C16.4235 20.8355 16.1981 20.9755 15.9727 21.1435C15.7474 21.2835 15.522 21.4516 15.2966 21.6196C15.0712 21.7596 14.8458 21.9277 14.5922 22.0677C14.3668 22.2077 14.1133 22.3757 13.8597 22.5158C13.6343 22.6558 13.3807 22.7958 13.099 22.9358C12.8454 23.0758 12.5919 23.2159 12.3101 23.3559C12.0566 23.4959 11.7748 23.6359 11.5213 23.748L11.1832 23.916L11.0705 23.972L10.986 24L10.9014 23.972L10.7887 23.916L10.4507 23.748C10.1689 23.6079 9.91536 23.4959 9.66179 23.3559C9.40823 23.2159 9.12649 23.0758 8.87292 22.9358C8.61936 22.7958 8.36579 22.6558 8.11223 22.5158C7.85866 22.3757 7.63327 22.2357 7.37971 22.0677C7.12614 21.9277 6.90075 21.7596 6.67536 21.6196C6.44997 21.4516 6.22458 21.3116 5.99918 21.1435C5.77379 20.9755 5.57658 20.8355 5.35119 20.6674C5.12579 20.4994 4.92858 20.3314 4.73136 20.1914C4.53414 20.0233 4.33692 19.8553 4.13971 19.6873C3.94249 19.5193 3.74527 19.3512 3.57623 19.1832C3.40719 19.0152 3.20997 18.8471 3.04092 18.6791C2.87188 18.5111 2.70284 18.3151 2.56197 18.147C2.39293 17.979 2.25206 17.783 2.11119 17.6149C1.97032 17.4469 1.82945 17.2789 1.71675 17.0828C1.60406 16.9148 1.46319 16.7468 1.35049 16.5788C1.2378 16.4107 1.1251 16.2427 1.04058 16.0747L1.0124 16.0187C0.843361 15.6826 0.702491 15.4586 0.617969 15.2345C0.533448 15.0105 0.448926 14.7865 0.420752 14.4784L0.392578 14.2824H0.589795H2.67466H2.78736L2.84371 14.3944V14.4224V14.4504C2.87188 14.5344 2.90006 14.5904 2.9564 14.6744C2.98458 14.7585 3.04092 14.8425 3.09727 14.9265C3.32266 15.0945 3.37901 15.2345 3.49171 15.3746ZM15.2402 7.56126C12.6482 6.88915 9.46457 6.86114 6.8444 7.56126C6.9571 11.0618 8.53484 14.3944 11.0423 16.8308C13.5498 14.3664 15.1275 11.0618 15.2402 7.56126Z" fill="#24B04B"/>
</svg>
